<?xml version="1.0" standalone="no"?>
<!DOCTYPE svg PUBLIC "-//W3C//DTD SVG 20010904//EN"
 "http://www.w3.org/TR/2001/REC-SVG-20010904/DTD/svg10.dtd">
<svg version="1.0" xmlns="http://www.w3.org/2000/svg"
 width="360.000000pt" height="409.000000pt" viewBox="0 0 360.000000 409.000000"
 preserveAspectRatio="xMidYMid meet">

<g transform="translate(0.000000,409.000000) scale(0.100000,-0.100000)"
fill="#000000" stroke="none">
<path d="M2108 3950 c-29 -29 -30 -34 -24 -83 53 -390 48 -599 -20 -873 -14
-58 -34 -124 -43 -147 -81 -188 -132 -257 -191 -257 -32 0 -39 12 -76 119 -77
226 -51 624 66 997 16 50 32 114 36 141 6 47 4 52 -20 68 -39 26 -72 7 -161
-87 -85 -90 -164 -217 -230 -367 -59 -134 -88 -235 -120 -425 -25 -145 -27
-172 -21 -344 5 -195 10 -234 44 -393 28 -130 70 -230 155 -372 l72 -120 90
-43 c151 -72 216 -79 347 -38 107 34 138 52 226 138 115 111 224 312 266 486
21 92 44 240 51 340 7 95 -9 376 -26 460 -25 125 -93 389 -116 450 -55 149
-174 339 -228 364 -43 21 -42 21 -77 -14z m90 -88 c64 -89 134 -245 177 -396
77 -270 89 -354 89 -636 1 -332 -24 -472 -120 -683 -126 -276 -233 -373 -423
-385 -120 -7 -175 8 -241 66 -151 132 -234 313 -292 632 -32 184 -3 552 64
789 49 177 192 453 277 536 37 35 41 37 41 17 0 -12 -9 -45 -20 -74 -42 -115
-93 -354 -111 -527 -14 -139 -7 -359 14 -421 8 -25 25 -78 37 -117 27 -88 76
-149 124 -159 46 -8 112 22 155 72 90 102 193 393 216 614 24 218 18 396 -21
658 -8 50 5 55 34 14z"/>
<path d="M2065 2078 c-74 -64 -114 -199 -70 -232 78 -59 195 55 195 189 0 43
-4 56 -19 65 -34 18 -69 11 -106 -22z"/>
<path d="M1595 2070 c-33 -36 1 -115 88 -207 61 -65 129 -34 113 51 -11 55
-130 176 -174 176 -5 0 -17 -9 -27 -20z"/>
</g>
</svg>
